<svg xmlns="http://www.w3.org/2000/svg" xmlns:xlink="http://www.w3.org/1999/xlink" width="320" height="320" viewBox="0 0 320 320">
  <defs>
    <clipPath id="clip-path">
      <rect id="Rectangle_256" data-name="Rectangle 256" width="320" height="272.42" fill="none"/>
    </clipPath>
  </defs>
  <g id="Group_3432" data-name="Group 3432" transform="translate(3639 -6779)">
    <rect id="Rectangle_259" data-name="Rectangle 259" width="320" height="320" transform="translate(-3639 6779)" fill="none"/>
    <g id="Group_3421" data-name="Group 3421" transform="translate(-3639 6803)" clip-path="url(#clip-path)">
      <path id="Path_9351" data-name="Path 9351" d="M320,0H0V18.456H2.549V272.42H22.977V18.449l125.2.008.156,1.791H63.612v248.02h84.54v4.153h19.762l-.008-4.153-.039-15.36L167.3,20.247h.008l-.008-1.791H320ZM74.67,145.36c0-3.425,2.549-6.233,5.662-6.233s5.662,2.815,5.662,6.233v9.658c0,3.418-2.549,6.225-5.662,6.225a5.981,5.981,0,0,1-5.662-6.225Zm45.343,109.128a28.266,28.266,0,0,1-20.756,8.579,28.656,28.656,0,0,1-16.916-5.3,29.267,29.267,0,0,1-10.753-14.233h35.482v9.752l19.583-19.551-19.583-19.551v9.752H71.589A29.231,29.231,0,0,1,82.342,209.7a28.656,28.656,0,0,1,16.916-5.3,29.347,29.347,0,0,1,20.756,50.09" transform="translate(0 0.001)" fill="#000018"/>
      <path id="Path_9352" data-name="Path 9352" d="M45.356,250.609V2.589H21.394l.594,248.02Z" transform="translate(145.917 17.658)" fill="#000018"/>
    </g>
  </g>
</svg>
