<svg xmlns="http://www.w3.org/2000/svg" xmlns:xlink="http://www.w3.org/1999/xlink" width="320" height="320" viewBox="0 0 320 320">
  <defs>
    <clipPath id="clip-path">
      <rect id="Rectangle_255" data-name="Rectangle 255" width="194.256" height="320" fill="none"/>
    </clipPath>
  </defs>
  <g id="Group_3431" data-name="Group 3431" transform="translate(3289 -6779)">
    <rect id="Rectangle_260" data-name="Rectangle 260" width="320" height="320" transform="translate(-3289 6779)" fill="none"/>
    <g id="Group_3420" data-name="Group 3420" transform="translate(-3226 6779)" clip-path="url(#clip-path)">
      <path id="Path_9350" data-name="Path 9350" d="M93.614,163.426h0c3.656,0,6.651,3.307,6.651,7.32v11.342c0,4.013-3,7.32-6.651,7.32s-6.661-3.289-6.661-7.32V170.747c0-4.022,3.005-7.32,6.661-7.32m31.406,122.639H83.344a34.312,34.312,0,0,0,12.634,16.711,33.606,33.606,0,0,0,19.872,6.23,34.453,34.453,0,1,0,0-68.905,33.669,33.669,0,0,0-19.872,6.23,34.271,34.271,0,0,0-12.634,16.711h41.677V251.59l23,22.959-23,22.968ZM23.995,319.991H0V0H193.477l.779,320-23.225-.009.037-298.314H23.995ZM73.972,23.775H169.18V315.108H73.972Z" transform="translate(0 0)" fill="#2a429a" fill-rule="evenodd"/>
    </g>
  </g>
</svg>
