<svg xmlns="http://www.w3.org/2000/svg" width="320" height="320" viewBox="0 0 320 320">
  <g id="Group_3430" data-name="Group 3430" transform="translate(2939 -6779)">
    <rect id="Rectangle_261" data-name="Rectangle 261" width="320" height="320" transform="translate(-2939 6779)" fill="none"/>
    <path id="Path_9354" data-name="Path 9354" d="M92.454,0l-5,.549ZM87.861,319.411V283.682h4.553V320ZM67.647,177.263l-.008,3.544h8.113v5.352l-8.016.016-.081,3.285H60.317v-12.2ZM149.09,91.1h3.455V246.581H149.09ZM87.861,63.643h4.545V252.6H87.861ZM148.775,36.5h3.794V69.221h-3.794ZM92.454,0V37.044h-5V.549L54.182,17.162H0V302.555H21.4V36.5l32.782.686-.961,265.374,34.639,16.855,4.553.589,56.677-17.445v-30.4h3.455v30.4h20.706l-.694-285.393h-41.3Z" transform="translate(-2866 6779)" fill="#603235"/>
  </g>
</svg>