<svg xmlns="http://www.w3.org/2000/svg" xmlns:xlink="http://www.w3.org/1999/xlink" width="320" height="320.086" viewBox="0 0 320 320.086">
  <defs>
    <clipPath id="clip-path">
      <rect id="Rectangle_257" data-name="Rectangle 257" width="170.064" height="320.086" fill="none"/>
    </clipPath>
  </defs>
  <g id="Group_3435" data-name="Group 3435" transform="translate(3639 -7126)">
    <rect id="Rectangle_263" data-name="Rectangle 263" width="320" height="320" transform="translate(-3639 7126)" fill="none"/>
    <g id="Group_3423" data-name="Group 3423" transform="translate(-3564 7126)" clip-path="url(#clip-path)">
      <path id="Path_9358" data-name="Path 9358" d="M170.064,299.057l-.676-280.15H116.03L53.19,0V18.907H0v280.15H21.006V37.886l32.184.676L52.176,320.086l94.171-21.03V269.213h3.386v29.844ZM66.089,152.6h7.2l-.016,3.474H91.051v5.243l-17.676.024-.08,3.225H66.089Zm74.284,110.191c0,20.177-13.623,34.138-30.069,37.966.33-.434,4.3-3.4,5.131-4.053a34.264,34.264,0,0,0,4.311-5.179,27.679,27.679,0,0,0,4.487-14.178v-.322c0-3.957-2.308-10.969-5.066-11.7,0,4.19-5.629,8.219-9.811,8.219h-3.169a9.492,9.492,0,0,1-2.839-.627c.418-1.56,6.643-5.171,6.643-11.709v-5.694c0-7.3-6.916-15.36-11.347-18.368l.909,6.98c.989,6.522-6.924,14.99-10.052,18.111-4.375,4.375-9.892,10.06-9.892,18.593a24.662,24.662,0,0,0,3.273,11.926c2.276,4.359,5.267,5.412,7.173,8-8.227,0-15.682-6.45-19.872-10.824-4.5-4.729-8.291-13.165-8.291-22.4,0-15.111,12.658-22.26,12.658-30.383,0-4.648-3.7-10.125-7.913-10.125H65.06c.692-2.6,7.68-5.066,11.709-5.066l1.922-.169,5.991,1.126c-.426-1.817-1.809-3.82-2.356-6.192a38.141,38.141,0,0,1-.812-8.05c0-12.3,9.779-24.045,21.834-24.045h.949c3.635,0,11.894,2.332,12.658,4.423h-.949a9.391,9.391,0,0,0-9.506,9.5c0,7.849,5.074,11.773,8.235,16.14,3.072,4.214,7.688,8.661,11.13,13.237,5.79,7.688,14.508,21.118,14.508,34.219Zm5.67-224.9h3.723v32.12h-3.723Zm.306,53.6h3.386V244.114h-3.386Z" transform="translate(0 0)" fill="#951a1d" fill-rule="evenodd"/>
    </g>
  </g>
</svg>