<svg xmlns="http://www.w3.org/2000/svg" width="320" height="320.087" viewBox="0 0 320 320.087">
  <g id="Group_3434" data-name="Group 3434" transform="translate(3989 -7126)">
    <rect id="Rectangle_262" data-name="Rectangle 262" width="320" height="320" transform="translate(-3989 7126)" fill="none"/>
    <g id="Group_3422" data-name="Group 3422" transform="translate(-4975.237 3806.551)">
      <path id="Path_9355" data-name="Path 9355" d="M10.819,32.038A16.82,16.82,0,0,0,20.907,33.86c-6.9-2.979-11.35-8.273-12.828-16.345l-5,2.531L12.94,3.156l10.177,6.75L16.86,13.079c-.269,7.206,4.331,12.388,14.09,15.71a16.8,16.8,0,0,0,4.5-9.207A16.609,16.609,0,0,0,33.787,9.54a18.351,18.351,0,0,0-9.782-8.415A16.318,16.318,0,0,0,11.148,2.1a16.239,16.239,0,0,0-8.415,9.782,16.285,16.285,0,0,0,.986,12.858,16.409,16.409,0,0,0,7.1,7.3" transform="translate(1078.214 3321.029)" fill="#3c245e"/>
      <path id="Path_9356" data-name="Path 9356" d="M85.026,33.519,6.743,0l.09,33.519Z" transform="translate(1109.843 3319.449)" fill="#3c245e"/>
      <path id="Path_9357" data-name="Path 9357" d="M160.009,268.514l-.635-263.6H0v263.59H19.765V22.769H137.406v.06L49.02,40.877l-.956,247.417,89.633-19.78V240.43h3.188v28.076ZM65.112,167.2a3.323,3.323,0,0,1-2.725-2.927H58.765l.007-5.555h3.614a3.622,3.622,0,0,1,2.823-2.412c1.9.187,3.39,1.979,3.285,5.19,0,5.279-1.5,5.779-3.383,5.7m18.115-99.93a16.822,16.822,0,0,1-23.1,5.869,16.421,16.421,0,0,1-6.787-7.586A16.821,16.821,0,0,1,52.209,55.37c2.509,7.086,7.482,11.88,15.442,13.911L64.783,74.1l17.525-8.684L76.26,54.8l-3.584,6.026C65.463,60.6,60.609,55.654,57.966,45.7a16.809,16.809,0,0,1,9.49-3.875,16.481,16.481,0,0,1,9.9,2.352,16.822,16.822,0,0,1,5.869,23.1m54.471-44.5h3.188v32.69H137.7Zm0,50.432h3.188v143.6H137.7Z" transform="translate(1066.237 3351.242)" fill="#3c245e"/>
    </g>
  </g>
</svg>