<svg class="logo" width="108" height="108" viewBox="0 0 108 108" xmlns="http://www.w3.org/2000/svg" role="img" aria-label="PMP-Produkt — Slovenské dvere"><title>PMP-Produkt — Slovenské dvere</title> <path fill="#321203" class="shape" d="M107.445,82.925c-4.91.405-9.915,0.591-14.733,0.591-2.034,0-4.662,0-8.229-.062v6.822H77.664v-22.4H80.2c5.66-.249,9.664-0.344,12.543-0.344a130.588,130.588,0,0,1,14.7.78h-0.005A39.089,39.089,0,0,1,107.445,82.925Zm-6.631-10.559c-1.909-.156-5.757-0.25-8.1-0.25-3.13,0-5.569.063-8.229,0.187v6.6c2.66,0.187,5.1.249,8.229,0.249,3.065,0,5.506-.125,8.1-0.312h0A18.794,18.794,0,0,0,100.814,72.367ZM25.726,27.753V23.865H80.887v3.887H25.726Zm43.316-5.019-0.005,0h-8.9V16.707h4.9V16.632a1.091,1.091,0,0,1,1.093-1.088h1.828a1.091,1.091,0,0,1,1.093,1.088v0.075h3.972l4.778,2.676v0.678l-4.778,2.673H69.041Zm-15.356,0h-0.02a3.77,3.77,0,0,1-3.782-3.759V3.783a3.8,3.8,0,0,1,7.6,0V18.994A3.77,3.77,0,0,1,53.686,22.734ZM31.464,19.189L46.07,16.306v6.429H31.464V19.189Zm12.451,1.617,0-1.89-9.575,1.89h9.573ZM30.51,67.884V90.277H23.691V83.457c-3.565.062-6.193,0.062-8.226,0.062-4.819,0-9.824-.19-14.735-0.591a39.154,39.154,0,0,1,0-14.607,130.391,130.391,0,0,1,14.7-.779c2.877,0,6.881.093,12.545,0.343H30.51ZM23.691,72.3c-2.66-.124-5.1-0.187-8.226-0.187-2.347,0-6.191.093-8.1,0.249a18.777,18.777,0,0,0,0,6.478c2.6,0.188,5.036.312,8.1,0.312h0c3.128,0,5.567-.064,8.226-0.249V72.3ZM15.976,99.718a2.462,2.462,0,0,1,.341,0,2.4,2.4,0,1,1-.341,4.8h-1.9v2.88H12.693V99.722h3.283v0Zm-0.114,1.236H14.079v2.323h1.782a1.222,1.222,0,0,0,.256,0A1.169,1.169,0,1,0,15.861,100.954Zm12.186-1.24a2.41,2.41,0,0,1,2.413,2.407v0a2.23,2.23,0,0,1-1.829,2.267l2.1,3.006H29.075l-1.933-2.876h-1.2v2.879H24.558V99.721h3.286C27.912,99.717,27.98,99.714,28.048,99.714Zm-2.1,1.242v2.334h1.784a1.106,1.106,0,0,0,.129.007,1.182,1.182,0,0,0,1.184-1.179,1.138,1.138,0,0,0-.007-0.129,1.179,1.179,0,0,0-1.306-1.033H25.943ZM33.8,28.762l0.543,3.006-2.159-1.454,0.957-1.552H33.8ZM34.34,31.77l1.39,7.715-2.164-1.47,1.468-2.389L32.87,34.156Zm1.316,17.84,1.467-2.4,0.7,3.875Zm-0.7-3.863,1.467-2.4-2.165-1.471,1.468-2.4,1.393,7.728Zm2.862,5.343,0.7,3.887-2.167-1.483Zm6.626-22.328V54.8H40.056L34.3,28.762H44.448Zm10.117,0.062v3.351h1.35l0.5,1.242h0.946v25.65l-0.822,0v-21.5h-0.8v0.2H55.73V58.958a6.84,6.84,0,0,0-2-.3,6.729,6.729,0,0,0-2.375.409H50V33.416h0.947l0.5-1.242H52.8V28.823h1.762Zm11.556,25.4a1.091,1.091,0,0,1-1.093-1.089V28.823h4.013V53.135a1.091,1.091,0,0,1-1.093,1.089H66.121ZM53.651,67.508l-0.006,0a177.236,177.236,0,0,1,18.144.9c0.377,6.946.5,14.953,0.5,21.866H65.442c0-5.482-.062-12.023-0.377-17.473-2.594-.188-5.316-0.312-7.977-0.374V90.274h-6.85V72.427c-2.69.063-5.381,0.187-7.977,0.374-0.282,5.45-.376,11.991-0.376,17.473H35.035c0-6.916.19-14.92,0.5-21.866A176.639,176.639,0,0,1,53.651,67.508ZM40.368,99.6c0.093,0,.186,0,0.279,0a3.85,3.85,0,0,1,3.735,3.962A3.979,3.979,0,1,1,40.368,99.6Zm0,6.686c0.077,0,.155,0,0.232-0.007a2.545,2.545,0,0,0,2.361-2.719c0-.048,0-0.1,0-0.144A2.74,2.74,0,1,0,40.368,106.289Zm13.562-6.567A3.845,3.845,0,1,1,53.4,107.4H50.576V99.722H53.4A3.994,3.994,0,0,1,53.931,99.722Zm-1.968,6.437H53.4a2.763,2.763,0,0,0,.34,0,2.606,2.606,0,1,0-.34-5.2H51.963v5.2Zm13.168-1.814a1.937,1.937,0,0,0,3.875,0V99.72h1.4v4.635c0,2.015-1.218,3.17-3.341,3.17a3.043,3.043,0,0,1-.548.013,2.981,2.981,0,0,1-2.779-3.171V99.721h1.4v4.624Zm15.6-4.741a3.662,3.662,0,0,1,3.069,1.521l0.146,0.2-1.179.633-0.112-.158a2.4,2.4,0,0,0-1.925-.96,2.724,2.724,0,1,0,0,5.448,2.421,2.421,0,0,0,1.926-.961l0.111-.152,1.2,0.618-0.158.2a3.706,3.706,0,0,1-3.078,1.528c-0.112,0-.223,0-0.334,0A3.965,3.965,0,1,1,80.733,99.6Zm14.754,1.355H93.063V107.4H91.679v-6.436H89.263V99.722h6.224v1.237Z"/> </svg>