<svg width="80" height="56" xmlns="http://www.w3.org/2000/svg" version="1.1">
    <rect width="80" height="56" fill="#fff"/>
	<polygon
			points="11.07623291015625,28.556480407714844 11.07623291015625,33.85647964477539 19.810233116149902,33.85647964477539 19.810233116149902,32.86747741699219 15.188232898712158,32.86747741699219 15.188232898712158,31.720478057861328 19.810233116149902,31.720478057861328 19.810233116149902,30.704479217529297 15.167232990264893,30.704479217529297 15.167232990264893,29.544479370117188 19.810233116149902,29.544479370117188 19.810233116149902,28.556480407714844 "
			fill="#D4082C"/>
	<rect height="3.973" width="44.517" fill="#D4082C" y="22.13848" x="23.89123"/>
	<path d="m25.71723,28.55648c-0.95,-0.055 -1.767,0.668 -1.826,1.618l0,3.685l7.928,0c0,0 0.01,-0.709 0.01,-0.782c-0.001,-0.062 -0.052,-0.109 -0.113,-0.108c-0.003,0 -0.006,0 -0.009,0.001c-0.062,0 -5.192,0 -5.192,0l0,-1.313l4.51,0l0,-0.773c0.001,-0.06 -0.048,-0.108 -0.107,-0.109c-0.005,0 -0.01,0 -0.015,0.001l-4.393,0l0,-1.339l5.306,0l0,-0.791c0,-0.071 -0.048,-0.09 -0.112,-0.09l-5.988,0l0.001,0zm9.009,0c-0.95,-0.054 -1.765,0.669 -1.826,1.618l0,3.685l8,0l0,-2.975c-0.008,-0.063 -0.06,-0.108 -0.122,-0.108c-0.055,0 -2.817,0.009 -3.49,0.009c-0.078,0 -0.122,0.046 -0.122,0.101l0,0.772l2.694,0l0,1.231l-4.351,0l0,-3.461l5.387,0l0,-0.782c0,-0.067 -0.047,-0.09 -0.122,-0.09l-6.048,0zm9.2,0c-0.95,-0.055 -1.766,0.668 -1.826,1.618l0,3.685l8,0l0,-2.975c-0.003,-0.061 -0.052,-0.108 -0.112,-0.108c-0.055,0 -2.815,0.009 -3.49,0.009c-0.055,-0.007 -0.104,0.032 -0.111,0.088c0,0.004 0,0.008 0,0.013c0,0.054 -0.011,0.772 -0.011,0.772l2.694,0l0,1.231l-4.347,0l0,-3.461l5.377,0l0,-0.782c0,-0.067 -0.038,-0.09 -0.112,-0.09l-6.062,0zm9.224,0c-0.95,-0.055 -1.766,0.668 -1.826,1.618l0,3.685l7.928,0l0,-0.782c0.005,-0.055 -0.035,-0.104 -0.091,-0.108c-0.007,0 -0.014,0 -0.021,0.001c-0.063,0 -5.193,0 -5.193,0l0,-1.313l4.5,0l0,-0.773c0.005,-0.056 -0.036,-0.104 -0.091,-0.108c-0.007,-0.001 -0.014,-0.001 -0.021,0l-4.386,0l0,-1.339l5.307,0l0,-0.791c0,-0.071 -0.06,-0.09 -0.122,-0.09l-5.984,0zm8.989,0c-0.948,-0.054 -1.761,0.67 -1.816,1.618l0,3.685l2.612,0l0,-2.2c0,0 2.789,2.106 2.694,2.049c0.12,0.086 0.177,0.155 0.3,0.153l2.867,0c0.281,0 0.01,-0.188 0.01,-0.188l-2.697,-2.016l0.714,0c0.856,0.033 1.577,-0.633 1.61,-1.489c0.033,-0.855 -0.633,-1.577 -1.489,-1.61c-0.037,-0.001 -0.074,-0.001 -0.111,0l-4.694,-0.002zm0.8,0.881l3.53,0c0.366,-0.011 0.673,0.277 0.684,0.644c0,0.01 0,0.021 0,0.03c-0.019,0.368 -0.315,0.661 -0.684,0.674l-3.53,0l0,-1.348z"
		  id="svg_3"/>
</svg>
