<svg width="80" height="56" xmlns="http://www.w3.org/2000/svg" version="1.1">
	<rect width="80" height="56" fill="#fff"/>
    <path d="m16.40825,37.49916c-0.884,0.105 -1.687,-0.524 -1.792,-1.408c-0.013,-0.102 -0.015,-0.205 -0.008,-0.307c-0.065,-0.908 0.619,-1.697 1.527,-1.762c0.091,-0.008 0.182,-0.006 0.272,0.002c0.902,-0.09 1.707,0.568 1.797,1.469c0.01,0.098 0.011,0.194 0.003,0.291c0.059,0.893 -0.617,1.663 -1.509,1.722c-0.096,0.007 -0.194,0.005 -0.29,-0.007m0.008,-3.1c-0.683,-0.059 -1.283,0.446 -1.342,1.129c-0.007,0.086 -0.006,0.172 0.005,0.258c-0.069,0.67 0.419,1.27 1.09,1.339c0.083,0.009 0.167,0.009 0.25,0c0.666,0.073 1.265,-0.408 1.337,-1.074c0.01,-0.089 0.01,-0.179 0,-0.268c0.08,-0.684 -0.409,-1.303 -1.092,-1.383c-0.082,-0.009 -0.163,-0.011 -0.245,-0.005"
		  fill="#0E0916" id="svg_24"/>
	<path d="m20.65025,37.49916c-0.349,0.021 -0.69,-0.105 -0.939,-0.35l-0.009,0l0,1.185l-0.44,0l0,-3.519l0.44,0l0,0.32l0.008,0c0.546,-0.526 1.416,-0.511 1.943,0.035c0.526,0.547 0.511,1.416 -0.036,1.943c-0.259,0.251 -0.607,0.39 -0.967,0.386m-0.018,-2.355c-0.489,-0.05 -0.925,0.307 -0.975,0.795c-0.007,0.066 -0.006,0.131 0.001,0.197c0.013,0.534 0.457,0.957 0.992,0.945c0.535,-0.014 0.958,-0.457 0.945,-0.992c-0.011,-0.525 -0.439,-0.943 -0.963,-0.945"
		  fill="#0E0916" id="svg_23"/>
	<path d="m25.73625,36.31416l-2.418,0l0.051,0.045c0.057,0.486 0.497,0.834 0.982,0.777c0.006,0 0.012,-0.001 0.018,-0.002c0.298,0.008 0.59,-0.094 0.821,-0.283l0.313,0.269c-0.317,0.265 -0.721,0.403 -1.134,0.388c-0.7,0.095 -1.343,-0.396 -1.438,-1.096c-0.011,-0.081 -0.014,-0.164 -0.009,-0.246c-0.04,-0.729 0.519,-1.35 1.247,-1.391c0.061,-0.002 0.123,-0.002 0.184,0.004c0.705,-0.067 1.332,0.449 1.399,1.155c0.007,0.077 0.007,0.154 0.001,0.231c-0.011,0.049 -0.017,0.099 -0.017,0.149m-0.39,-0.358l-0.051,-0.045c-0.045,-0.474 -0.465,-0.82 -0.938,-0.775c-0.003,0 -0.006,0 -0.01,0c-0.48,-0.049 -0.912,0.296 -0.973,0.775l-0.051,0.045l2.023,0z"
		  fill="#0E0916" id="svg_22"/>
	<path d="m29.41825,37.45416l-0.44,0l0,-1.6c0,-0.418 -0.144,-0.709 -0.838,-0.709c-0.508,0 -0.914,0.246 -0.914,0.746l0,1.566l-0.44,0l0,-2.639l0.44,0l0,0.328l0.008,0c0.255,-0.248 0.6,-0.383 0.956,-0.373c0.787,0 1.227,0.357 1.227,1l0.001,1.681z"
		  fill="#0E0916" id="svg_21"/>
	<path d="m31.14425,37.36416l-0.4,0.806l-0.279,-0.101l0.262,-0.537l0.059,-0.045c-0.174,0.006 -0.319,-0.133 -0.323,-0.307c0,-0.012 0,-0.023 0.001,-0.035c-0.011,-0.18 0.126,-0.334 0.305,-0.344c0.017,-0.002 0.033,-0.002 0.05,0c0.183,-0.021 0.349,0.111 0.37,0.294c0.002,0.017 0.002,0.032 0.002,0.05c0,0.077 -0.018,0.153 -0.051,0.224"
		  fill="#0E0916" id="svg_20"/>
	<path d="m36.95825,34.83216c-0.279,-0.304 -0.681,-0.463 -1.092,-0.433c-0.708,-0.078 -1.347,0.432 -1.426,1.141c-0.009,0.082 -0.011,0.164 -0.004,0.247c-0.057,0.688 0.457,1.294 1.146,1.351c0.092,0.007 0.185,0.004 0.276,-0.009c0.41,0.033 0.813,-0.124 1.092,-0.425l0.339,0.283c-0.387,0.365 -0.908,0.553 -1.439,0.521c-0.899,0.131 -1.734,-0.492 -1.864,-1.392c-0.016,-0.106 -0.021,-0.216 -0.015,-0.323c-0.038,-0.938 0.691,-1.729 1.629,-1.768c0.086,-0.004 0.172,-0.001 0.258,0.009c0.532,-0.036 1.054,0.153 1.439,0.522l-0.339,0.276z"
		  fill="#0E0916" id="svg_19"/>
	<rect height="3.52" width="0.44" fill="#0E0916" y="33.93516" x="38.22725" id="svg_18"/>
	<path d="m41.12225,37.49916c-0.754,-0.026 -1.343,-0.658 -1.317,-1.412s0.659,-1.343 1.413,-1.316c0.734,0.025 1.316,0.629 1.316,1.365c0.053,0.703 -0.475,1.314 -1.179,1.367c-0.078,0.006 -0.156,0.004 -0.233,-0.004m0,-2.355c-0.549,-0.006 -0.997,0.434 -1.002,0.981c-0.006,0.548 0.434,0.997 0.982,1.002s0.996,-0.435 1.002,-0.981c0,-0.004 0,-0.008 0,-0.01c0.056,-0.492 -0.296,-0.936 -0.788,-0.992c-0.065,-0.007 -0.13,-0.008 -0.194,0"
		  fill="#0E0916" id="svg_17"/>
	<path d="m44.71725,37.49916c-0.474,0.023 -0.938,-0.141 -1.295,-0.455l0.322,-0.283c0.262,0.238 0.604,0.369 0.956,0.365c0.533,0 0.771,-0.18 0.771,-0.389c0,-0.17 -0.118,-0.282 -0.525,-0.379c-0.068,-0.016 -0.475,-0.119 -0.533,-0.143c-0.525,-0.127 -0.914,-0.313 -0.914,-0.716s0.373,-0.737 1.176,-0.737c0.43,-0.016 0.849,0.137 1.168,0.424l-0.321,0.283c-0.217,-0.23 -0.522,-0.355 -0.838,-0.343c-0.517,0 -0.736,0.187 -0.736,0.358s0.169,0.261 0.66,0.379c0.06,0.016 0.415,0.113 0.481,0.128c0.593,0.142 0.83,0.38 0.83,0.723c0,0.4 -0.331,0.784 -1.202,0.785"
		  fill="#0E0916" id="svg_16"/>
	<path d="m49.62025,36.31416l-2.421,0l0.052,0.045c0.057,0.486 0.496,0.834 0.982,0.777c0.006,0 0.012,-0.001 0.018,-0.002c0.299,0.008 0.59,-0.094 0.82,-0.283l0.301,0.269c-0.318,0.265 -0.722,0.403 -1.135,0.388c-0.699,0.095 -1.344,-0.396 -1.438,-1.096c-0.012,-0.081 -0.014,-0.164 -0.01,-0.246c-0.039,-0.729 0.519,-1.35 1.246,-1.391c0.063,-0.002 0.123,-0.002 0.184,0.004c0.706,-0.067 1.332,0.449 1.399,1.155c0.007,0.077 0.008,0.154 0.001,0.231c0.002,0.05 -0.001,0.1 -0.008,0.148m-0.388,-0.357l-0.051,-0.045c-0.045,-0.474 -0.465,-0.82 -0.939,-0.775c-0.002,0 -0.006,0 -0.009,0c-0.481,-0.049 -0.913,0.296 -0.974,0.775l-0.051,0.045l2.024,0z"
		  fill="#0E0916" id="svg_15"/>
	<path d="m51.21025,37.36416l-0.4,0.806l-0.279,-0.101l0.262,-0.537l0.06,-0.045c-0.174,0.006 -0.319,-0.133 -0.323,-0.307c0,-0.012 0,-0.023 0.001,-0.035c-0.011,-0.18 0.126,-0.334 0.306,-0.344c0.016,-0.002 0.033,-0.002 0.049,0c0.184,-0.021 0.35,0.111 0.371,0.294c0.002,0.017 0.002,0.032 0.002,0.05c-0.001,0.077 -0.018,0.153 -0.051,0.224"
		  fill="#0E0916" id="svg_14"/>
	<path d="m56.82025,37.45416l-2.606,0l0,-3.393l0.449,0l0,2.967l-0.052,0.045l2.209,0l0,0.381z" fill="#0E0916"
		  id="svg_13"/>
	<path d="m57.88525,34.46516c-0.14,0.019 -0.268,-0.081 -0.286,-0.221c-0.003,-0.019 -0.003,-0.036 -0.001,-0.056c-0.007,-0.158 0.117,-0.293 0.275,-0.299c0.159,-0.008 0.293,0.116 0.3,0.275c0.007,0.158 -0.116,0.293 -0.276,0.3c-0.004,0.001 -0.008,0.001 -0.012,0.001m0.221,2.99l-0.439,0l0,-2.642l0.439,0l0,2.642z"
		  fill="#0E0916" id="svg_12"/>
	<path d="m61.96525,34.81516l-1.269,2.639l-0.481,0l-1.279,-2.639l0.49,0l0.9,1.885l0.127,0.337l0.008,0l0.127,-0.337l0.89,-1.885l0.487,0z"
		  fill="#0E0916" id="svg_11"/>
	<path d="m65.37625,36.31416l-2.418,0l0.05,0.044c0.058,0.486 0.498,0.834 0.983,0.777c0.006,0 0.012,-0.001 0.017,-0.002c0.299,0.008 0.591,-0.094 0.822,-0.283l0.313,0.269c-0.317,0.265 -0.721,0.403 -1.135,0.388c-0.699,0.095 -1.343,-0.396 -1.438,-1.096c-0.011,-0.081 -0.014,-0.164 -0.009,-0.246c-0.04,-0.729 0.519,-1.35 1.246,-1.391c0.062,-0.002 0.122,-0.002 0.184,0.004c0.706,-0.068 1.332,0.449 1.399,1.155c0.007,0.077 0.008,0.154 0.001,0.231c-0.008,0.053 -0.008,0.09 -0.015,0.15m-0.39,-0.358l-0.051,-0.045c-0.045,-0.474 -0.466,-0.82 -0.938,-0.775c-0.004,0 -0.006,0 -0.01,0c-0.48,-0.049 -0.912,0.296 -0.973,0.775l-0.051,0.045l2.023,0z"
		  fill="#0E0916" id="svg_10"/>
	<path d="m52.30925,17.66816c-2.515,-0.062 -4.867,1.238 -6.152,3.4c-2.138,-3.396 -6.625,-4.417 -10.021,-2.279c-0.92,0.58 -1.699,1.358 -2.279,2.279c-1.285,-2.165 -3.641,-3.465 -6.157,-3.4c-3.766,0 -6.821,2.691 -6.821,6.016c0,3.325 3.055,6.008 6.821,6.008c2.515,0.063 4.867,-1.238 6.152,-3.399c2.138,3.396 6.625,4.417 10.021,2.278c0.92,-0.579 1.699,-1.358 2.278,-2.278c1.284,2.163 3.638,3.464 6.151,3.399c3.767,0 6.83,-2.69 6.83,-6.008c0.001,-3.318 -3.053,-6.016 -6.823,-6.016"
		  fill="#E40019" id="svg_9"/>
	<path d="m27.80225,21.20116l-0.025,0l-1.219,3.586l2.463,0l-1.219,-3.586zm-0.99,-1.431l1.938,0l2.962,7.836l-1.735,0l-0.508,-1.521l-3.36,0l-0.508,1.521l-1.743,0l2.954,-7.836z"
		  fill="#FFFFFF" id="svg_8"/>
	<path d="m42.19625,22.43216c-0.283,-0.967 -1.214,-1.597 -2.217,-1.5c-1.374,-0.015 -2.5,1.088 -2.514,2.462c-0.001,0.096 0.003,0.193 0.014,0.289c-0.146,1.366 0.844,2.592 2.211,2.737c0.096,0.01 0.192,0.015 0.289,0.014c1.123,0.115 2.128,-0.697 2.251,-1.819l-2.192,0l0,-1.3l3.707,0l0,4.279l-1.447,0l0,-0.671c-0.643,0.566 -1.471,0.877 -2.327,0.872c-2.16,0.177 -4.055,-1.431 -4.232,-3.592c-0.014,-0.174 -0.017,-0.349 -0.008,-0.523c-0.051,-2.224 1.71,-4.068 3.934,-4.12c0.102,-0.002 0.204,-0.001 0.306,0.004c1.618,-0.106 3.127,0.814 3.774,2.3l-1.549,0.568z"
		  fill="#FFFFFF" id="svg_7"/>
	<path d="m50.82925,22.91616l1.979,0c0.735,0 1.399,-0.253 1.399,-1c0,-0.6 -0.432,-0.977 -1.399,-0.977l-1.979,0l0,1.977zm0,3.392l2.165,0c1.007,0 1.616,-0.276 1.616,-1.088c0,-0.88 -0.626,-1.2 -1.633,-1.2l-2.15,0l0.002,2.288zm-1.668,-6.538l4.172,0c1.457,0 2.623,0.649 2.623,1.946c0.01,0.849 -0.657,1.552 -1.506,1.588l0,0.021c1.05,0.034 1.887,0.888 1.9,1.938c0,1.961 -1.583,2.348 -3.42,2.348l-3.77,0l0,-7.841l0.001,0z"
		  fill="#FFFFFF" id="svg_6"/>
 </svg>