<svg xmlns="http://www.w3.org/2000/svg" xmlns:xlink="http://www.w3.org/1999/xlink" width="320" height="320" viewBox="0 0 320 320">
  <defs>
    <clipPath id="clip-path">
      <rect id="Rectangle_245" data-name="Rectangle 245" width="320" height="288.823" fill="none"/>
    </clipPath>
  </defs>
  <g id="Group_3436" data-name="Group 3436" transform="translate(3639 -7473)">
    <rect id="Rectangle_267" data-name="Rectangle 267" width="320" height="320" transform="translate(-3639 7473)" fill="none"/>
    <g id="Group_3425" data-name="Group 3425" transform="translate(-3639 7504)">
      <g id="Group_3382" data-name="Group 3382" transform="translate(0 0)" clip-path="url(#clip-path)">
        <path id="Path_9343" data-name="Path 9343" d="M32.588,229.754H19.638V216.811h8.247v-5.885H19.638V4.494h12.95v90.63h7.066V62.165H63.192v164.06c0,2.532-2.228,3.529-4.71,3.529H39.654V170.9H32.588Z" transform="translate(119.257 27.289)" fill="#2b225b"/>
        <path id="Path_9344" data-name="Path 9344" d="M8.235,76.279H0V101l1.174,1.181v2.348l1.174,2.355,1.181,1.174v2.355l2.348,1.181,1.181,1.174,1.174,2.355L10.59,116.3h1.174l2.355,1.181h2.355l1.174,1.174H153.007c4.965,0,5.885-1.754,5.885-4.7V28.022h-7.059V86.874H8.235Z" transform="translate(0.012 170.169)" fill="#2b225b"/>
        <path id="Path_9345" data-name="Path 9345" d="M8.244,41.2H.011V17.659C-.328,8.174,7.438.005,16.484.005H153.016c3.31-.085,5.63.849,5.885,4.71v117.7h-7.059V31.79H8.244Z" transform="translate(0.003 -0.001)" fill="#2b225b"/>
        <path id="Path_9346" data-name="Path 9346" d="M175.474,0V78.862H23.8V1.175A1.167,1.167,0,0,1,24.973,0Z" transform="translate(144.526 0.004)" fill="#97a8c3" fill-rule="evenodd"/>
      </g>
    </g>
  </g>
</svg>
