<svg xmlns="http://www.w3.org/2000/svg" width="106" height="68" viewBox="0 0 106 68">
  <defs>
    <style>
      .cls-1 {
        fill: #c4986d;
        fill-rule: evenodd;
      }
    </style>
  </defs>
  <path id="nacenenie-zdarma" class="cls-1" d="M104.38,41.74c-1.672.335-2.661-4.261-4.045-5.324a20.38,20.38,0,0,0-3.644,1.925,24.773,24.773,0,0,1-.4,5.341l0.007,0a1.589,1.589,0,0,1-2.618.346,9.019,9.019,0,0,1-.121-2.655c0.035-4.279.27-8.411,0.519-12.552,0.127-2.083-.44-4.919,1.394-5.663,1.43-.616,1.7.483,2.387,2.066,1.807,4,3.861,6.951,5.667,10.509,0.579,1.146,1.68,2.892,2.307,4.079C106.046,40.664,105.034,41.558,104.38,41.74ZM96.886,29.9l-0.246.077a20.5,20.5,0,0,0,.126,5.117,3.845,3.845,0,0,0,2.256-1.177A13.663,13.663,0,0,0,96.886,29.9Zm8.659-18.615a6.346,6.346,0,0,1-5.168,2.361,5.373,5.373,0,0,1-4.849-2.69c-1.259-2.14-1.514-3.924-1.038-5.38A5.776,5.776,0,0,1,96.582,2.05c2.335-1.766,4.786-1.7,6.819.627a5.986,5.986,0,0,1,1.174,1.694A2.065,2.065,0,0,1,104,6.63c-1.066.821-1.562,1.4-2.684,2.145-0.75.513-1.747,1.19-2.321,1.616,0.5,0.815,1.277.827,2.535,0.685l0,0c1.921-.209,2.2-1.894,3.423-1.617a1.313,1.313,0,0,1,.629,1.75C105.569,11.231,105.558,11.256,105.545,11.28Zm-5.136-4.934A2.34,2.34,0,0,0,101.6,4.8c-1.359-1.807-3-1.4-4.252.519a2.747,2.747,0,0,0,.212,2.659A20.062,20.062,0,0,0,100.409,6.346ZM91.054,16.907c-0.6-.307-0.709-1.459-0.917-2.547-0.385-1.917-.77-3.925-1.13-5.762-0.257-1.428-.332-3.033.922-3.557a1.475,1.475,0,0,1,1.727.476,6.108,6.108,0,0,1,.233,1.819,33.765,33.765,0,0,0,.907,4.978,13.008,13.008,0,0,1,.74,3.1C93.406,16.29,91.92,17.368,91.054,16.907ZM87.966,2.569a1.8,1.8,0,0,1,.72-2.161A1.373,1.373,0,0,1,90.6.693a1.336,1.336,0,0,1,.208.415h0C91.375,2.731,88.651,4.123,87.966,2.569Zm0.478,13.995c-0.055,1.023-1.739,2.047-2.668,1.282A21.57,21.57,0,0,1,84.7,13.722a11.769,11.769,0,0,0-.917-3.288c-0.8.378-1.005,1.572-1.3,2.5a20.558,20.558,0,0,0-.96,3.717c-0.194.955-.325,3.57-1,3.942-1.8,1.029-2.045-.819-2.4-2.565-0.425-1.936-.684-3.66-1.222-5.587-0.444-1.546-1.142-3.42.015-4.065,2.014-1.1,2.163,2.555,3.075,4.186a7.152,7.152,0,0,0,.728-1.6l0,0.005a10.706,10.706,0,0,1,1.461-3.175c0.53-.733,1.345-1.8,2.616-1.443a3.564,3.564,0,0,1,1.493,1.763c0.759,1.8,1.08,5.068,1.69,7.033A6.471,6.471,0,0,1,88.444,16.564ZM81.391,39.73a17.138,17.138,0,0,0,.327-3.721c0.095-2.073.251-3.428,0.382-5.395a11.811,11.811,0,0,1,.54-2.813c0.343-.763,1.665-1.634,2.486-0.926a9.351,9.351,0,0,1,1.382,2.334c1.243,2.915,2.173,4.861,3.35,7.945,0.616,1.522,1.269,3.264,1.926,4.826,0.448,1.011,1.168,2.139,1.07,3.292-0.044.693-1.688,1.29-2.376,1.093-0.57-.2-1.218-1.382-1.943-3.34-0.378-.971-0.752-1.946-1.1-2.837-0.743-2.014-1.627-4.833-2.285-6.217-0.176.739-.359,2.365-0.483,3.261l0.005,0.011a32.085,32.085,0,0,1-.429,3.96c-0.181,1.275.009,3.137-1.225,3.538-1.107.244-2.285-1.185-3.1-2.314-1.212-1.177-3.337-3.6-4.35-4.808,0.215,0.935.953,3.481,1.063,4.541,0.1,1.033.26,2.08,0.4,3.156,0.51,4.129,1.038,5.113-.979,5.565-1.35.32-1.777-.994-2.04-2.624C73.45,44.5,72.969,41.192,72.366,37.33a13,13,0,0,1-.335-5.4,2.066,2.066,0,0,1,2.151-.969,7.409,7.409,0,0,1,1.938,1.949c1.237,1.525,1.96,2.561,3.115,4.11A17.358,17.358,0,0,0,81.391,39.73ZM75.8,20.945a6.34,6.34,0,0,1-5.166,2.36,5.372,5.372,0,0,1-4.849-2.69c-1.26-2.14-1.516-3.924-1.038-5.38a5.77,5.77,0,0,1,2.09-3.521c2.335-1.766,4.786-1.7,6.82.627a5.968,5.968,0,0,1,1.173,1.694,2.069,2.069,0,0,1-.574,2.26c-1.066.821-1.563,1.4-2.684,2.145-0.752.513-1.748,1.19-2.322,1.616,0.5,0.815,1.278.827,2.535,0.685l0,0c1.921-.209,2.2-1.894,3.422-1.617a1.314,1.314,0,0,1,.63,1.749C75.826,20.9,75.813,20.921,75.8,20.945Zm-5.136-4.934a2.339,2.339,0,0,0,1.191-1.543c-1.359-1.807-3-1.4-4.25.518a2.747,2.747,0,0,0,.211,2.659A20.064,20.064,0,0,0,70.664,16.011Zm-9.29,9.763A21.5,21.5,0,0,1,60.3,21.651a11.7,11.7,0,0,0-.918-3.288c-0.8.378-1.005,1.572-1.3,2.5a20.625,20.625,0,0,0-.959,3.717c-0.2.955-.324,3.57-1,3.942-1.8,1.029-2.045-.819-2.4-2.565-0.424-1.937-.684-3.66-1.221-5.587-0.443-1.546-1.141-3.42.015-4.065,2.014-1.1,2.162,2.555,3.075,4.187a7.178,7.178,0,0,0,.728-1.593,10.718,10.718,0,0,1,1.464-3.176c0.531-.733,1.345-1.8,2.616-1.443a3.556,3.556,0,0,1,1.492,1.763c0.759,1.8,1.081,5.068,1.692,7.032a6.693,6.693,0,0,1,.462,1.421C63.985,25.515,62.3,26.539,61.374,25.774Zm-9.977,3.1a6.342,6.342,0,0,1-5.167,2.36,5.373,5.373,0,0,1-4.849-2.69c-1.259-2.14-1.515-3.924-1.038-5.38a5.773,5.773,0,0,1,2.091-3.521c2.335-1.766,4.786-1.7,6.82.627a5.991,5.991,0,0,1,1.171,1.7,2.067,2.067,0,0,1-.571,2.259c-1.066.821-1.562,1.4-2.684,2.145-0.751.513-1.748,1.19-2.321,1.616,0.5,0.815,1.277.827,2.535,0.685l0,0c1.921-.209,2.2-1.894,3.422-1.617a1.314,1.314,0,0,1,.63,1.749C51.423,28.825,51.411,28.849,51.4,28.874ZM46.262,23.94A2.34,2.34,0,0,0,47.453,22.4c-1.359-1.807-3-1.4-4.251.519a2.749,2.749,0,0,0,.211,2.659A20.045,20.045,0,0,0,46.262,23.94ZM36.305,34.758v0a6.018,6.018,0,0,1-6.88-2.091,7.07,7.07,0,0,1-.938-4.169,6.672,6.672,0,0,1,4-5.3c0.823-.383,3.578-1.222,4.122-0.362a1.716,1.716,0,0,1-.457,2.385l-0.034.023a23.459,23.459,0,0,1-2.368.744c-1.854.871-2.9,3.314-1.971,4.611a3.456,3.456,0,0,0,4.585,1.056c1.459-.71,2.353-1.977,3.466-0.651C40.793,32.144,38.816,34,36.305,34.758ZM25.439,59.541a18.28,18.28,0,0,0-.562,2.284,5.6,5.6,0,0,0-.121,1.818,5.358,5.358,0,0,0,2.36-.5c0.554-.207,1.279-0.354,1.914-0.589,0.376-.122,1.118-0.4,1.646-0.506a1.671,1.671,0,0,1,1.276-.093,2.2,2.2,0,0,1,.063,3.111,2.127,2.127,0,0,1-.279.245c-0.8.379-1.97,0.788-2.845,1.1-0.563.183-1.355,0.5-2.027,0.689-0.707.2-1.181,0.384-1.9,0.643a17.586,17.586,0,0,1-2.064.671,1.479,1.479,0,0,1-1.5-.427,5.914,5.914,0,0,1-.255-2.793,12.589,12.589,0,0,1,.5-2.294c0.142-.551.258-1.3,0.417-1.914a21.52,21.52,0,0,1,.562-2.158,26.241,26.241,0,0,0,1.213-4.515,5.786,5.786,0,0,0,.188-2.429,2.174,2.174,0,0,0-1.671.066c-0.659.157-1.4,0.426-2.118,0.6a11.9,11.9,0,0,1-1.342.436c-0.847.125-1.784,0.165-2.215-.613-0.438-.807-0.269-2.106.317-2.324a30.149,30.149,0,0,1,3.023-1.012c0.849-.308,1.485-0.452,2.315-0.722,1.4-.453,4.785-1.706,5.461-0.266,0.491,1.144-.341,2.777-0.657,3.916C26.369,54.735,26.213,57.008,25.439,59.541ZM24.147,39.156A10.028,10.028,0,0,1,19.4,38.09a3.124,3.124,0,0,1-1.624-1.251,3.249,3.249,0,0,1,.035-3.274,6.6,6.6,0,0,1,1.682-1.85c1.185-.827,3.544-1.418,3.8-2.091a1.793,1.793,0,0,0-1.449-2.084,1.532,1.532,0,0,0-.185-0.023c-1.907.975-2.642,2.548-3.662,2.791a1.122,1.122,0,0,1-1.048-.759c-0.478-1.023.372-1.867,1.111-2.522,1.413-1.405,2.545-2.4,4.359-2.568A4.123,4.123,0,0,1,25.5,26.8a16.688,16.688,0,0,1,1.305,5.113,46.905,46.905,0,0,1,.463,4.8,2.766,2.766,0,0,1-1.017,2.079A5.523,5.523,0,0,1,24.147,39.156Zm-0.071-6.5a3.854,3.854,0,0,0-1.924.474A3.365,3.365,0,0,0,20.1,34.748h0c0.533,1.547,2.7,1.465,4.047,1.235C24.909,35.5,24.381,33.6,24.076,32.657ZM14.15,42.575a2.753,2.753,0,0,1-1.375-1.035C10.907,39.719,9,38.147,7.316,36.148A28.121,28.121,0,0,1,4,32.6c0.209,1.83,1.486,6.035,1.82,7.794,0.312,1.233.908,3.523,0.507,4.308a1.973,1.973,0,0,1-2.02.894c-1.036-.257-1.154-2.912-1.425-4.013C1.873,37.739,1.416,34.513.352,30.417c-0.282-1.149-.751-2.86-0.471-3.46a2.506,2.506,0,0,1,1.906-1.064c0.812,0.033,1.565,1.152,2.422,2.147,1.553,1.774,2.614,3.03,4.181,4.744A38.426,38.426,0,0,0,11.846,36.4a29.725,29.725,0,0,0-.878-3.889l0-.008c-0.519-1.963-.806-2.936-1.282-4.768a12.941,12.941,0,0,1-.8-2.91,1.817,1.817,0,0,1,.87-1.438,1.7,1.7,0,0,1,1.633-.177c0.726,0.505,1.09,2.9,1.26,3.976,0.189,1.037,2.6,10,2.893,10.909,0.3,1,.847,2.333.616,3.176A2.137,2.137,0,0,1,14.15,42.575Zm17.77,1.832a9.844,9.844,0,0,1,1.5-.218l0-.005a13.725,13.725,0,0,1,6.029.558,8.31,8.31,0,0,1,1.774,1.17,9.925,9.925,0,0,1,3.5,7.4c0.057,2.914-.5,4.4-2.4,6.318a10.558,10.558,0,0,1-5.93,3.289c-1.163.26-1.544,0.087-1.822-.585-0.809-3.678-1.464-6.608-2.6-10.651C31.153,48.623,29.3,45.378,31.92,44.407ZM34.637,50.4c0.616,2.349,1.066,4.008,1.627,6.194v0c0.287,1.063.578,2.508,1.03,2.715,3.332-.517,5.125-3.944,4.11-7.7a6.329,6.329,0,0,0-3.226-3.9c-0.878-.425-2.986-0.9-3.968-0.162C33.808,47.85,34.375,49.413,34.637,50.4Zm12.49-6.319c0.127-2.083-.441-4.919,1.394-5.663,1.429-.616,1.7.483,2.387,2.066,1.806,4,3.862,6.952,5.666,10.51,0.58,1.146,1.681,2.892,2.307,4.079,0.213,0.848-.8,1.742-1.453,1.924-1.672.335-2.66-4.261-4.045-5.324A20.394,20.394,0,0,0,49.739,53.6a24.607,24.607,0,0,1-.392,5.343,1.589,1.589,0,0,1-2.618.346,9.01,9.01,0,0,1-.121-2.655C46.642,52.353,46.877,48.221,47.127,44.08Zm2.687,6.265a3.843,3.843,0,0,0,2.256-1.177,13.685,13.685,0,0,0-2.136-4.016L49.7,45.23A20.479,20.479,0,0,0,49.814,50.345ZM57.086,41.3c-0.434-1.517-1.274-3.466-1.146-4.516A2.373,2.373,0,0,1,57.558,35.1a12.575,12.575,0,0,1,3.621-.641l0-.008c2.407,0.018,5.022-.24,6.453,2.7a5.1,5.1,0,0,1-.077,5.238c-0.227.4-1.09,1.122-.966,1.586,0.126,0.581,1.264,1.337,1.763,1.8,1.424,1.283,2.161,2.081,3.638,3.35,0.62,0.539,1.544,1.187,1.662,2.009,0.136,1.05-1.336,2-2.431,1.827a4.549,4.549,0,0,1-1.8-1.342c-1.158-1.1-1.979-2.167-3.3-3.309-0.623-.361-1.047-1.112-1.775-1.261a2.222,2.222,0,0,0-1.619,1.415c0.016,1.5,1.258,4.421,1,5.922a1.955,1.955,0,0,1-2.2,1.455c-1.161-.275-1.16-2.2-1.431-3.415-0.387-1.739-.879-3.8-1.452-5.749C58.047,44.711,57.553,42.915,57.086,41.3Zm4.392,3.4a4.844,4.844,0,0,0,2.052-2c0.486-.605,1.713-1.657,1.634-2.635h0a2.923,2.923,0,0,0-1.677-2.331,6.3,6.3,0,0,0-3.876.581C59.588,40.069,60.844,43.1,61.478,44.7Z"/>
</svg>
